<?xml-stylesheet href="defaultstyles.css" type="text/css"?>
<svg xmlns="http://www.w3.org/2000/svg" xmlns:d="http://www.mathworks.com/blockgraphics" xmlns:xlink="http://www.w3.org/1999/xlink" version="1.1" id="svg_3" width="250" height="250" d:options="Foreground:PortStyled;PreserveAspect:On;ScalingOnResizeMax:2.0;Rotate:Off;Resize:Off">
	<g id="layer_5" title="layer_0">
		<g id="Diode">
			<path id="path_62" class="path" style="fill:#ffffff;" transform="matrix(-0.6946583705,0.7193398003,-0.7193398003,-0.6946583705,134.5217439534,223.3389099008)" d=" M 14.62,135.36 L 14.63,145.08 L 25.1,140.22 L 14.62,135.36 Z"/>
			<path id="path_83" class="path" transform="matrix(-0.6946583705,0.7193398003,-0.7193398003,-0.6946583705,128.119460978,240.0365287763)" d=" M 8.63,147.21 L 17.6,147.21"/>
			<path id="path_84" class="path" transform="matrix(-0.6946583705,0.7193398003,-0.7193398003,-0.6946583705,140.9676751643,206.6027744347)" d=" M 22.15,133.22 L 31.12,133.22"/>
			<path id="path_107" class="path" transform="matrix(-0.6946583705,0.7193398003,-0.7193398003,-0.6946583705,131.0663740868,232.3256164034)" d=" M 16.22,139.12 L 16.23,148.84"/>
		</g>
		<g id="Diode_76">
			<path id="path_72" class="path" style="fill:#ffffff;" transform="matrix(-0.6946583705,0.7193398003,-0.7193398003,-0.6946583705,75.8387713271,68.1283511743)" d=" M 20.76,47.84 L 20.77,57.56 L 31.24,52.7 L 20.76,47.84 Z"/>
			<path id="path_73" class="path" transform="matrix(-0.6946583705,0.7193398003,-0.7193398003,-0.6946583705,69.4364812476,84.8259578066)" d=" M 14.77,59.69 L 23.74,59.69"/>
			<path id="path_74" class="path" transform="matrix(-0.6946583705,0.7193398003,-0.7193398003,-0.6946583705,82.2847057703,51.3922143361)" d=" M 28.29,45.7 L 37.26,45.7"/>
			<path id="path_75" class="path" transform="matrix(-0.6946583705,0.7193398003,-0.7193398003,-0.6946583705,72.3834042046,77.1150641418)" d=" M 22.36,51.6 L 22.37,61.32"/>
		</g>
		<g id="Diode_81">
			<path id="path_77" class="path" style="fill:#ffffff;" transform="matrix(-0.6946583705,0.7193398003,-0.7193398003,-0.6946583705,61.8308160028,17.6943743679)" d=" M 27.01,22.2 L 27.02,31.92 L 37.49,27.06 L 27.01,22.2 Z"/>
			<path id="path_78" class="path" transform="matrix(-0.6946583705,0.7193398003,-0.7193398003,-0.6946583705,55.4285275393,34.3919803142)" d=" M 21.02,34.05 L 29.99,34.05"/>
			<path id="path_79" class="path" transform="matrix(-0.6946583705,0.7193398003,-0.7193398003,-0.6946583705,68.2767504459,0.9582375298)" d=" M 34.54,20.06 L 43.51,20.06"/>
			<path id="path_80" class="path" transform="matrix(-0.6946583705,0.7193398003,-0.7193398003,-0.6946583705,58.3754502523,26.6810905676)" d=" M 28.61,25.96 L 28.62,35.68"/>
		</g>
		<g id="Diode_88">
			<path id="path_82" class="path" style="fill:#ffffff;" transform="matrix(-0.6946583705,0.7193398003,-0.7193398003,-0.6946583705,109.5172339419,113.5926864525)" d=" M 33.04,82.81 L 33.05,92.53 L 43.52,87.67 L 33.04,82.81 Z"/>
			<path id="path_85" class="path" transform="matrix(-0.6946583705,0.7193398003,-0.7193398003,-0.6946583705,103.1149523386,130.2903085603)" d=" M 27.05,94.66 L 36.02,94.66"/>
			<path id="path_86" class="path" transform="matrix(-0.6946583705,0.7193398003,-0.7193398003,-0.6946583705,115.9631683849,96.8565496143)" d=" M 40.57,80.67 L 49.54,80.67"/>
			<path id="path_87" class="path" transform="matrix(-0.6946583705,0.7193398003,-0.7193398003,-0.6946583705,106.0618727958,122.5794045125)" d=" M 34.64,86.57 L 34.65,96.29"/>
		</g>
		<g id="Diode_93">
			<path id="path_89" class="path" style="fill:#ffffff;" transform="matrix(-0.6946583705,0.7193398003,-0.7193398003,-0.6946583705,180.3154308648,263.420647338)" d=" M 39.19,175.3 L 39.2,185.02 L 49.67,180.16 L 39.19,175.3 Z"/>
			<path id="path_90" class="path" transform="matrix(-0.6946583705,0.7193398003,-0.7193398003,-0.6946583705,173.9131387734,280.1182357507)" d=" M 33.2,187.15 L 42.17,187.15"/>
			<path id="path_91" class="path" transform="matrix(-0.6946583705,0.7193398003,-0.7193398003,-0.6946583705,186.7613685402,246.6845091277)" d=" M 46.72,173.16 L 55.69,173.16"/>
			<path id="path_92" class="path" transform="matrix(-0.6946583705,0.7193398003,-0.7193398003,-0.6946583705,176.8600591379,272.407358445)" d=" M 40.79,179.06 L 40.8,188.78"/>
		</g>
		<g id="Diode_98">
			<path id="path_94" class="path" style="fill:#ffffff;" transform="matrix(-0.6946583705,0.7193398003,-0.7193398003,-0.6946583705,143.1885075983,159.0400766195)" d=" M 45.32,117.77 L 45.33,127.49 L 55.8,122.63 L 45.32,117.77 Z"/>
			<path id="path_95" class="path" transform="matrix(-0.6946583705,0.7193398003,-0.7193398003,-0.6946583705,136.7862205069,175.7376857981)" d=" M 39.33,129.62 L 48.3,129.62"/>
			<path id="path_96" class="path" transform="matrix(-0.6946583705,0.7193398003,-0.7193398003,-0.6946583705,149.634438809,142.3039411533)" d=" M 52.85,115.63 L 61.82,115.63"/>
			<path id="path_97" class="path" transform="matrix(-0.6946583705,0.7193398003,-0.7193398003,-0.6946583705,139.7331445918,168.0267992838)" d=" M 46.92,121.53 L 46.93,131.25"/>
		</g>
		<g id="Diode_103">
			<path id="path_99" class="path" style="fill:#ffffff;" transform="matrix(-0.6946583705,0.7193398003,-0.7193398003,-0.6946583705,235.5910404376,359.7175452598)" d=" M 51.48,240.27 L 51.49,249.99 L 61.96,245.13 L 51.48,240.27 Z"/>
			<path id="path_100" class="path" transform="matrix(-0.6946583705,0.7193398003,-0.7193398003,-0.6946583705,229.1887418816,376.4151364166)" d=" M 45.49,252.12 L 54.46,252.12"/>
			<path id="path_101" class="path" transform="matrix(-0.6946583705,0.7193398003,-0.7193398003,-0.6946583705,242.0369716486,342.981409794)" d=" M 59.01,238.13 L 67.98,238.13"/>
			<path id="path_102" class="path" transform="matrix(-0.6946583705,0.7193398003,-0.7193398003,-0.6946583705,232.1356687107,368.704256367)" d=" M 53.08,244.03 L 53.09,253.75"/>
		</g>
		<g id="Diode_154">
			<path id="path_150" class="path" style="fill:#ffffff;" transform="matrix(-0.6946583705,0.7193398003,-0.7193398003,-0.6946583705,226.0947251625,303.4684779027)" d=" M 63.75,215.21 L 63.76,224.93 L 74.23,220.07 L 63.75,215.21 Z"/>
			<path id="path_151" class="path" transform="matrix(-0.6946583705,0.7193398003,-0.7193398003,-0.6946583705,219.6924500241,320.1660972666)" d=" M 57.76,227.06 L 66.73,227.06"/>
			<path id="path_152" class="path" transform="matrix(-0.6946583705,0.7193398003,-0.7193398003,-0.6946583705,232.5406563734,286.7323424366)" d=" M 71.28,213.07 L 80.25,213.07"/>
			<path id="path_153" class="path" transform="matrix(-0.6946583705,0.7193398003,-0.7193398003,-0.6946583705,222.639374109,312.4552107521)" d=" M 65.35,218.97 L 65.36,228.69"/>
		</g>
		<line id="line_175" class="line icon-editor-primary-stroke" x1="30" y1="0" x2="30" y2="250"/>
		<g id="Diode_193">
			<path id="path_189" class="path" style="fill:#ffffff;" transform="matrix(-0.6946583705,0.7193398003,-0.7193398003,-0.6946583705,192.8015261392,198.4605954203)" d=" M 52.17,138.42 L 52.18,148.14 L 62.65,143.28 L 52.17,138.42 Z"/>
			<path id="path_190" class="path" transform="matrix(-0.6946583705,0.7193398003,-0.7193398003,-0.6946583705,186.39925414,215.1582401544)" d=" M 46.18,150.27 L 55.15,150.27"/>
			<path id="path_191" class="path" transform="matrix(-0.6946583705,0.7193398003,-0.7193398003,-0.6946583705,199.2474541179,181.7244613262)" d=" M 59.7,136.28 L 68.67,136.28"/>
			<path id="path_192" class="path" transform="matrix(-0.6946583705,0.7193398003,-0.7193398003,-0.6946583705,189.3461595049,207.447300551)" d=" M 53.77,142.18 L 53.78,151.9"/>
		</g>
		<g id="Diode_198">
			<path id="path_194" class="path" style="fill:#ffffff;" transform="matrix(-0.6946583705,0.7193398003,-0.7193398003,-0.6946583705,134.1113640665,43.2330994191)" d=" M 58.31,50.89 L 58.32,60.61 L 68.79,55.75 L 58.31,50.89 Z"/>
			<path id="path_195" class="path" transform="matrix(-0.6946583705,0.7193398003,-0.7193398003,-0.6946583705,127.709076731,59.9307125159)" d=" M 52.32,62.74 L 61.29,62.74"/>
			<path id="path_196" class="path" transform="matrix(-0.6946583705,0.7193398003,-0.7193398003,-0.6946583705,140.5572952773,26.4969639529)" d=" M 65.84,48.75 L 74.81,48.75"/>
			<path id="path_197" class="path" transform="matrix(-0.6946583705,0.7193398003,-0.7193398003,-0.6946583705,130.655996944,52.2198123866)" d=" M 59.91,54.65 L 59.92,64.37"/>
		</g>
		<g id="Diode_203">
			<path id="path_199" class="path" style="fill:#ffffff;" transform="matrix(-0.6946583705,0.7193398003,-0.7193398003,-0.6946583705,118.5887789722,-10.2979492433)" d=" M 64.46,23.38 L 64.47,33.1 L 74.94,28.24 L 64.46,23.38 Z"/>
			<path id="path_200" class="path" transform="matrix(-0.6946583705,0.7193398003,-0.7193398003,-0.6946583705,112.1864956014,6.3996507267)" d=" M 58.47,35.23 L 67.44,35.23"/>
			<path id="path_201" class="path" transform="matrix(-0.6946583705,0.7193398003,-0.7193398003,-0.6946583705,125.0347069509,-27.0340833372)" d=" M 71.99,21.24 L 80.96,21.24"/>
			<path id="path_202" class="path" transform="matrix(-0.6946583705,0.7193398003,-0.7193398003,-0.6946583705,115.133415082,-1.3112376479)" d=" M 66.06,27.14 L 66.07,36.86"/>
		</g>
		<g id="Diode_208">
			<path id="path_204" class="path" style="fill:#ffffff;" transform="matrix(-0.6946583705,0.7193398003,-0.7193398003,-0.6946583705,167.7898299135,88.6974333252)" d=" M 70.59,85.86 L 70.6,95.58 L 81.07,90.72 L 70.59,85.86 Z"/>
			<path id="path_205" class="path" transform="matrix(-0.6946583705,0.7193398003,-0.7193398003,-0.6946583705,161.3875418456,105.3950581772)" d=" M 64.6,97.71 L 73.57,97.71"/>
			<path id="path_206" class="path" transform="matrix(-0.6946583705,0.7193398003,-0.7193398003,-0.6946583705,174.2357643566,71.961296487)" d=" M 78.12,83.72 L 87.09,83.72"/>
			<path id="path_207" class="path" transform="matrix(-0.6946583705,0.7193398003,-0.7193398003,-0.6946583705,164.3344677909,97.6841670586)" d=" M 72.19,89.62 L 72.2,99.34"/>
		</g>
		<g id="Diode_213">
			<path id="path_209" class="path" style="fill:#ffffff;" transform="matrix(-0.6946583705,0.7193398003,-0.7193398003,-0.6946583705,238.6049750873,238.5182306228)" d=" M 76.75,178.35 L 76.76,188.07 L 87.23,183.21 L 76.75,178.35 Z"/>
			<path id="path_210" class="path" transform="matrix(-0.6946583705,0.7193398003,-0.7193398003,-0.6946583705,232.2026849489,255.2157876887)" d=" M 70.76,190.2 L 79.73,190.2"/>
			<path id="path_211" class="path" transform="matrix(-0.6946583705,0.7193398003,-0.7193398003,-0.6946583705,245.0509192273,221.7820896683)" d=" M 84.28,176.21 L 93.25,176.21"/>
			<path id="path_212" class="path" transform="matrix(-0.6946583705,0.7193398003,-0.7193398003,-0.6946583705,235.1496053134,247.5049103831)" d=" M 78.35,182.11 L 78.36,191.83"/>
		</g>
		<g id="Diode_218">
			<path id="path_214" class="path" style="fill:#ffffff;" transform="matrix(-0.6946583705,0.7193398003,-0.7193398003,-0.6946583705,201.4780537738,134.1376285576)" d=" M 82.88,120.82 L 82.89,130.54 L 93.36,125.68 L 82.88,120.82 Z"/>
			<path id="path_215" class="path" transform="matrix(-0.6946583705,0.7193398003,-0.7193398003,-0.6946583705,195.0757602178,150.8352404803)" d=" M 76.89,132.67 L 85.86,132.67"/>
			<path id="path_216" class="path" transform="matrix(-0.6946583705,0.7193398003,-0.7193398003,-0.6946583705,207.9239720553,117.4014985795)" d=" M 90.41,118.68 L 99.38,118.68"/>
			<path id="path_217" class="path" transform="matrix(-0.6946583705,0.7193398003,-0.7193398003,-0.6946583705,198.0226843027,143.124353966)" d=" M 84.48,124.58 L 84.49,134.3"/>
		</g>
		<g id="Diode_223">
			<path id="path_219" class="path" style="fill:#ffffff;" transform="matrix(-0.6946583705,0.7193398003,-0.7193398003,-0.6946583705,293.8733907019,334.7981626674)" d=" M 89.04,243.31 L 89.05,253.03 L 99.52,248.17 L 89.04,243.31 Z"/>
			<path id="path_220" class="path" transform="matrix(-0.6946583705,0.7193398003,-0.7193398003,-0.6946583705,287.4710986106,351.49575108)" d=" M 83.05,255.16 L 92.02,255.16"/>
			<path id="path_221" class="path" transform="matrix(-0.6946583705,0.7193398003,-0.7193398003,-0.6946583705,300.3193219129,318.0620272015)" d=" M 96.57,241.17 L 105.54,241.17"/>
			<path id="path_222" class="path" transform="matrix(-0.6946583705,0.7193398003,-0.7193398003,-0.6946583705,290.4180015342,343.7848506601)" d=" M 90.64,247.07 L 90.65,256.79"/>
		</g>
		<g id="Diode_228">
			<path id="path_224" class="path" style="fill:#ffffff;" transform="matrix(-0.6946583705,0.7193398003,-0.7193398003,-0.6946583705,284.3673146696,278.5732275195)" d=" M 101.3,218.26 L 101.31,227.98 L 111.78,223.12 L 101.3,218.26 Z"/>
			<path id="path_225" class="path" transform="matrix(-0.6946583705,0.7193398003,-0.7193398003,-0.6946583705,277.965039531,295.2708468834)" d=" M 95.31,230.11 L 104.28,230.11"/>
			<path id="path_226" class="path" transform="matrix(-0.6946583705,0.7193398003,-0.7193398003,-0.6946583705,290.8132588097,261.8370865653)" d=" M 108.83,216.12 L 117.8,216.12"/>
			<path id="path_227" class="path" transform="matrix(-0.6946583705,0.7193398003,-0.7193398003,-0.6946583705,280.911963616,287.5599603688)" d=" M 102.9,222.02 L 102.91,231.74"/>
		</g>
		<line id="line_229" class="line icon-editor-primary-stroke" x1="60" y1="0" x2="60" y2="250"/>
		<line id="line_246" class="line" x1="0" y1="30" x2="250" y2="30"/>
		<line id="line_247" class="line" x1="0" y1="60" x2="250" y2="60"/>
		<line id="line_248" class="line" x1="0" y1="90" x2="250" y2="90"/>
		<line id="line_249" class="line" x1="0" y1="120" x2="250" y2="120"/>
		<line id="line_250" class="line" x1="0" y1="150" x2="250" y2="150"/>
		<line id="line_251" class="line" x1="0" y1="180" x2="250" y2="180"/>
		<line id="line_252" class="line" x1="0" y1="210" x2="250" y2="210"/>
		<line id="line_253" class="line" x1="0" y1="240" x2="250" y2="240"/>
		<ellipse id="ellipse_266" class="ellipse" style="fill:#000000;" cx="30" cy="9.7" rx="1.5" ry="1.5"/>
		<line id="line_267" class="line icon-editor-primary-stroke" x1="90" y1="0" x2="90" y2="250"/>
		<line id="line_268" class="line icon-editor-primary-stroke" x1="120" y1="0" x2="120" y2="250"/>
		<line id="line_269" class="line icon-editor-primary-stroke" x1="150" y1="0" x2="150" y2="250"/>
		<line id="line_270" class="line icon-editor-primary-stroke" x1="180" y1="0" x2="180" y2="250"/>
		<line id="line_271" class="line icon-editor-primary-stroke" x1="210" y1="0" x2="210" y2="250"/>
		<line id="line_272" class="line icon-editor-primary-stroke" x1="240" y1="0" x2="240" y2="250"/>
		<g id="Diode_277">
			<path id="path_273" class="path" style="fill:#ffffff;" transform="matrix(-0.6946583705,0.7193398003,-0.7193398003,-0.6946583705,251.0910658501,173.5581501025)" d=" M 89.73,141.47 L 89.74,151.19 L 100.21,146.33 L 89.73,141.47 Z"/>
			<path id="path_274" class="path" transform="matrix(-0.6946583705,0.7193398003,-0.7193398003,-0.6946583705,244.6888048271,190.2558206949)" d=" M 83.74,153.32 L 92.71,153.32"/>
			<path id="path_275" class="path" transform="matrix(-0.6946583705,0.7193398003,-0.7193398003,-0.6946583705,257.5369938288,156.8220160084)" d=" M 97.26,139.33 L 106.23,139.33"/>
			<path id="path_276" class="path" transform="matrix(-0.6946583705,0.7193398003,-0.7193398003,-0.6946583705,247.6356992158,182.5448552331)" d=" M 91.33,145.23 L 91.34,154.95"/>
		</g>
		<g id="Diode_282">
			<path id="path_278" class="path" style="fill:#ffffff;" transform="matrix(-0.6946583705,0.7193398003,-0.7193398003,-0.6946583705,192.3911485081,18.3547992399)" d=" M 95.86,53.95 L 95.87,63.67 L 106.34,58.81 L 95.86,53.95 Z"/>
			<path id="path_279" class="path" transform="matrix(-0.6946583705,0.7193398003,-0.7193398003,-0.6946583705,185.9888676372,35.0524095926)" d=" M 89.87,65.8 L 98.84,65.8"/>
			<path id="path_280" class="path" transform="matrix(-0.6946583705,0.7193398003,-0.7193398003,-0.6946583705,198.837079719,1.6186637736)" d=" M 103.39,51.81 L 112.36,51.81"/>
			<path id="path_281" class="path" transform="matrix(-0.6946583705,0.7193398003,-0.7193398003,-0.6946583705,188.9357813857,27.3415122073)" d=" M 97.46,57.71 L 97.47,67.43"/>
		</g>
		<g id="Diode_287">
			<path id="path_283" class="path" style="fill:#ffffff;" transform="matrix(-0.6946583705,0.7193398003,-0.7193398003,-0.6946583705,176.8783200551,-35.200391329)" d=" M 102.02,26.43 L 102.03,36.15 L 112.5,31.29 L 102.02,26.43 Z"/>
			<path id="path_284" class="path" transform="matrix(-0.6946583705,0.7193398003,-0.7193398003,-0.6946583705,170.4760353123,-18.5027945911)" d=" M 96.03,38.28 L 105,38.28"/>
			<path id="path_285" class="path" transform="matrix(-0.6946583705,0.7193398003,-0.7193398003,-0.6946583705,183.3242480339,-51.9365254227)" d=" M 109.55,24.29 L 118.52,24.29"/>
			<path id="path_286" class="path" transform="matrix(-0.6946583705,0.7193398003,-0.7193398003,-0.6946583705,173.4229547929,-26.2136829658)" d=" M 103.62,30.19 L 103.63,39.91"/>
		</g>
		<g id="Diode_292">
			<path id="path_288" class="path" style="fill:#ffffff;" transform="matrix(-0.6946583705,0.7193398003,-0.7193398003,-0.6946583705,226.0793696244,63.7949880074)" d=" M 108.15,88.91 L 108.16,98.63 L 118.63,93.77 L 108.15,88.91 Z"/>
			<path id="path_289" class="path" transform="matrix(-0.6946583705,0.7193398003,-0.7193398003,-0.6946583705,219.6770870446,80.4926257885)" d=" M 102.16,100.76 L 111.13,100.76"/>
			<path id="path_290" class="path" transform="matrix(-0.6946583705,0.7193398003,-0.7193398003,-0.6946583705,232.5253040674,47.0588511692)" d=" M 115.68,86.77 L 124.65,86.77"/>
			<path id="path_291" class="path" transform="matrix(-0.6946583705,0.7193398003,-0.7193398003,-0.6946583705,222.6240075017,72.7817217406)" d=" M 109.75,92.67 L 109.76,102.39"/>
		</g>
		<g id="Diode_297">
			<path id="path_293" class="path" style="fill:#ffffff;" transform="matrix(-0.6946583705,0.7193398003,-0.7193398003,-0.6946583705,296.8945147981,213.615785305)" d=" M 114.31,181.4 L 114.32,191.12 L 124.79,186.26 L 114.31,181.4 Z"/>
			<path id="path_294" class="path" transform="matrix(-0.6946583705,0.7193398003,-0.7193398003,-0.6946583705,290.4922246598,230.3133423708)" d=" M 108.32,193.25 L 117.29,193.25"/>
			<path id="path_295" class="path" transform="matrix(-0.6946583705,0.7193398003,-0.7193398003,-0.6946583705,303.3404589383,196.8796443504)" d=" M 121.84,179.26 L 130.81,179.26"/>
			<path id="path_296" class="path" transform="matrix(-0.6946583705,0.7193398003,-0.7193398003,-0.6946583705,293.4391450242,222.6024650652)" d=" M 115.91,185.16 L 115.92,194.88"/>
		</g>
		<g id="Diode_302">
			<path id="path_298" class="path" style="fill:#ffffff;" transform="matrix(-0.6946583705,0.7193398003,-0.7193398003,-0.6946583705,259.7747939076,109.2521463727)" d=" M 120.44,123.88 L 120.45,133.6 L 130.92,128.74 L 120.44,123.88 Z"/>
			<path id="path_299" class="path" transform="matrix(-0.6946583705,0.7193398003,-0.7193398003,-0.6946583705,253.3724893752,125.9497324372)" d=" M 114.45,135.73 L 123.42,135.73"/>
			<path id="path_300" class="path" transform="matrix(-0.6946583705,0.7193398003,-0.7193398003,-0.6946583705,266.2207067009,92.5160034656)" d=" M 127.97,121.74 L 136.94,121.74"/>
			<path id="path_301" class="path" transform="matrix(-0.6946583705,0.7193398003,-0.7193398003,-0.6946583705,256.3194134602,118.2388459229)" d=" M 122.04,127.64 L 122.05,137.36"/>
		</g>
		<g id="Diode_307">
			<path id="path_303" class="path" style="fill:#ffffff;" transform="matrix(-0.6946583705,0.7193398003,-0.7193398003,-0.6946583705,352.1459802088,309.9029122842)" d=" M 126.59,246.36 L 126.6,256.08 L 137.07,251.22 L 126.59,246.36 Z"/>
			<path id="path_304" class="path" transform="matrix(-0.6946583705,0.7193398003,-0.7193398003,-0.6946583705,345.7436771413,326.6004748384)" d=" M 120.6,258.21 L 129.57,258.21"/>
			<path id="path_305" class="path" transform="matrix(-0.6946583705,0.7193398003,-0.7193398003,-0.6946583705,358.5919114199,293.1667768183)" d=" M 134.12,244.22 L 143.09,244.22"/>
			<path id="path_306" class="path" transform="matrix(-0.6946583705,0.7193398003,-0.7193398003,-0.6946583705,348.6906039705,318.8895947887)" d=" M 128.19,250.12 L 128.2,259.84"/>
		</g>
		<g id="Diode_312">
			<path id="path_308" class="path" style="fill:#ffffff;" transform="matrix(-0.6946583705,0.7193398003,-0.7193398003,-0.6946583705,342.6640567563,253.6877139883)" d=" M 138.86,221.32 L 138.87,231.04 L 149.34,226.18 L 138.86,221.32 Z"/>
			<path id="path_309" class="path" transform="matrix(-0.6946583705,0.7193398003,-0.7193398003,-0.6946583705,336.2617557591,270.3853443283)" d=" M 132.87,233.17 L 141.84,233.17"/>
			<path id="path_310" class="path" transform="matrix(-0.6946583705,0.7193398003,-0.7193398003,-0.6946583705,349.109987967,236.9515785222)" d=" M 146.39,219.18 L 155.36,219.18"/>
			<path id="path_311" class="path" transform="matrix(-0.6946583705,0.7193398003,-0.7193398003,-0.6946583705,339.2086908205,262.6744836722)" d=" M 140.46,225.08 L 140.47,234.8"/>
		</g>
		<g id="Diode_317">
			<path id="path_313" class="path" style="fill:#ffffff;" transform="matrix(-0.6946583705,0.7193398003,-0.7193398003,-0.6946583705,309.4144930395,148.6413204034)" d=" M 127.32,144.53 L 127.33,154.25 L 137.8,149.39 L 127.32,144.53 Z"/>
			<path id="path_314" class="path" transform="matrix(-0.6946583705,0.7193398003,-0.7193398003,-0.6946583705,303.0122384812,165.3389882518)" d=" M 121.33,156.38 L 130.3,156.38"/>
			<path id="path_315" class="path" transform="matrix(-0.6946583705,0.7193398003,-0.7193398003,-0.6946583705,315.8604339474,131.9051808212)" d=" M 134.85,142.39 L 143.82,142.39"/>
			<path id="path_316" class="path" transform="matrix(-0.6946583705,0.7193398003,-0.7193398003,-0.6946583705,305.9591393344,157.628020046)" d=" M 128.92,148.29 L 128.93,158.01"/>
		</g>
		<g id="Diode_322">
			<path id="path_318" class="path" style="fill:#ffffff;" transform="matrix(-0.6946583705,0.7193398003,-0.7193398003,-0.6946583705,250.7145886269,-6.5620359472)" d=" M 133.45,57.01 L 133.46,66.73 L 143.93,61.87 L 133.45,57.01 Z"/>
			<path id="path_319" class="path" transform="matrix(-0.6946583705,0.7193398003,-0.7193398003,-0.6946583705,244.3123077559,10.1355744054)" d=" M 127.46,68.86 L 136.43,68.86"/>
			<path id="path_320" class="path" transform="matrix(-0.6946583705,0.7193398003,-0.7193398003,-0.6946583705,257.1605069084,-23.2981659254)" d=" M 140.98,54.87 L 149.95,54.87"/>
			<path id="path_321" class="path" transform="matrix(-0.6946583705,0.7193398003,-0.7193398003,-0.6946583705,247.2592085751,2.4246825082)" d=" M 135.05,60.77 L 135.06,70.49"/>
		</g>
		<g id="Diode_327">
			<path id="path_323" class="path" style="fill:#ffffff;" transform="matrix(-0.6946583705,0.7193398003,-0.7193398003,-0.6946583705,235.1919933475,-60.0930726571)" d=" M 139.6,29.5 L 139.61,39.22 L 150.08,34.36 L 139.6,29.5 Z"/>
			<path id="path_324" class="path" transform="matrix(-0.6946583705,0.7193398003,-0.7193398003,-0.6946583705,228.7897201619,-43.3954846398)" d=" M 133.61,41.35 L 142.58,41.35"/>
			<path id="path_325" class="path" transform="matrix(-0.6946583705,0.7193398003,-0.7193398003,-0.6946583705,241.6379328834,-76.8292154714)" d=" M 147.13,27.36 L 156.1,27.36"/>
			<path id="path_326" class="path" transform="matrix(-0.6946583705,0.7193398003,-0.7193398003,-0.6946583705,231.7366396424,-51.1063730144)" d=" M 141.2,33.26 L 141.21,42.98"/>
		</g>
		<g id="Diode_332">
			<path id="path_328" class="path" style="fill:#ffffff;" transform="matrix(-0.6946583705,0.7193398003,-0.7193398003,-0.6946583705,284.3858650271,38.885360684)" d=" M 145.73,91.97 L 145.74,101.69 L 156.21,96.83 L 145.73,91.97 Z"/>
			<path id="path_329" class="path" transform="matrix(-0.6946583705,0.7193398003,-0.7193398003,-0.6946583705,277.9835714712,55.5829726069)" d=" M 139.74,103.82 L 148.71,103.82"/>
			<path id="path_330" class="path" transform="matrix(-0.6946583705,0.7193398003,-0.7193398003,-0.6946583705,290.8317865411,22.1492293341)" d=" M 153.26,89.83 L 162.23,89.83"/>
			<path id="path_331" class="path" transform="matrix(-0.6946583705,0.7193398003,-0.7193398003,-0.6946583705,280.9305103458,47.8720760001)" d=" M 147.33,95.73 L 147.34,105.45"/>
		</g>
		<g id="Diode_337">
			<path id="path_333" class="path" style="fill:#ffffff;" transform="matrix(-0.6946583705,0.7193398003,-0.7193398003,-0.6946583705,355.2010156891,188.706170911)" d=" M 151.89,184.46 L 151.9,194.18 L 162.37,189.32 L 151.89,184.46 Z"/>
			<path id="path_334" class="path" transform="matrix(-0.6946583705,0.7193398003,-0.7193398003,-0.6946583705,348.7987016453,205.4037076065)" d=" M 145.9,196.31 L 154.87,196.31"/>
			<path id="path_335" class="path" transform="matrix(-0.6946583705,0.7193398003,-0.7193398003,-0.6946583705,361.6469469001,171.9700354445)" d=" M 159.42,182.32 L 168.39,182.32"/>
			<path id="path_336" class="path" transform="matrix(-0.6946583705,0.7193398003,-0.7193398003,-0.6946583705,351.74562201,197.6928303008)" d=" M 153.49,188.22 L 153.5,197.94"/>
		</g>
		<g id="Diode_342">
			<path id="path_338" class="path" style="fill:#ffffff;" transform="matrix(-0.6946583705,0.7193398003,-0.7193398003,-0.6946583705,318.0812708931,84.3425116085)" d=" M 158.02,126.94 L 158.03,136.66 L 168.5,131.8 L 158.02,126.94 Z"/>
			<path id="path_339" class="path" transform="matrix(-0.6946583705,0.7193398003,-0.7193398003,-0.6946583705,311.6789792899,101.0400921847)" d=" M 152.03,138.79 L 161,138.79"/>
			<path id="path_340" class="path" transform="matrix(-0.6946583705,0.7193398003,-0.7193398003,-0.6946583705,324.5272021037,67.6063761422)" d=" M 165.55,124.8 L 174.52,124.8"/>
			<path id="path_341" class="path" transform="matrix(-0.6946583705,0.7193398003,-0.7193398003,-0.6946583705,314.625903375,93.3292056703)" d=" M 159.62,130.7 L 159.63,140.42"/>
		</g>
		<g id="Diode_347">
			<path id="path_343" class="path" style="fill:#ffffff;" transform="matrix(-0.6946583705,0.7193398003,-0.7193398003,-0.6946583705,410.4694073984,284.9860825851)" d=" M 164.18,249.42 L 164.19,259.14 L 174.66,254.28 L 164.18,249.42 Z"/>
			<path id="path_344" class="path" transform="matrix(-0.6946583705,0.7193398003,-0.7193398003,-0.6946583705,404.0671282363,301.6836655096)" d=" M 158.19,261.27 L 167.16,261.27"/>
			<path id="path_345" class="path" transform="matrix(-0.6946583705,0.7193398003,-0.7193398003,-0.6946583705,416.9153644678,268.2499361431)" d=" M 171.71,247.28 L 180.68,247.28"/>
			<path id="path_346" class="path" transform="matrix(-0.6946583705,0.7193398003,-0.7193398003,-0.6946583705,407.0140311599,293.9727650897)" d=" M 165.78,253.18 L 165.79,262.9"/>
		</g>
		<g id="Diode_352">
			<path id="path_348" class="path" style="fill:#ffffff;" transform="matrix(-0.6946583705,0.7193398003,-0.7193398003,-0.6946583705,400.9705317888,228.7781105704)" d=" M 176.44,224.38 L 176.45,234.1 L 186.92,229.24 L 176.44,224.38 Z"/>
			<path id="path_349" class="path" transform="matrix(-0.6946583705,0.7193398003,-0.7193398003,-0.6946583705,394.568245674,245.4757040759)" d=" M 170.45,236.23 L 179.42,236.23"/>
			<path id="path_350" class="path" transform="matrix(-0.6946583705,0.7193398003,-0.7193398003,-0.6946583705,407.4164888582,212.041964128)" d=" M 183.97,222.24 L 192.94,222.24"/>
			<path id="path_351" class="path" transform="matrix(-0.6946583705,0.7193398003,-0.7193398003,-0.6946583705,397.5151807353,237.7648434197)" d=" M 178.04,228.14 L 178.05,237.86"/>
		</g>
		<g id="Diode_357">
			<path id="path_353" class="path" style="fill:#ffffff;" transform="matrix(-0.6946583705,0.7193398003,-0.7193398003,-0.6946583705,367.6773586239,123.7702171118)" d=" M 164.86,147.59 L 164.87,157.31 L 175.34,152.45 L 164.86,147.59 Z"/>
			<path id="path_354" class="path" transform="matrix(-0.6946583705,0.7193398003,-0.7193398003,-0.6946583705,361.2750672308,140.4678700782)" d=" M 158.87,159.44 L 167.84,159.44"/>
			<path id="path_355" class="path" transform="matrix(-0.6946583705,0.7193398003,-0.7193398003,-0.6946583705,374.1232736733,107.0340885058)" d=" M 172.39,145.45 L 181.36,145.45"/>
			<path id="path_356" class="path" transform="matrix(-0.6946583705,0.7193398003,-0.7193398003,-0.6946583705,364.2219725958,132.7569304747)" d=" M 166.46,151.35 L 166.47,161.07"/>
		</g>
		<g id="Diode_362">
			<path id="path_358" class="path" style="fill:#ffffff;" transform="matrix(-0.6946583705,0.7193398003,-0.7193398003,-0.6946583705,308.97022793,-31.4500913958)" d=" M 170.99,60.06 L 171,69.78 L 181.47,64.92 L 170.99,60.06 Z"/>
			<path id="path_359" class="path" transform="matrix(-0.6946583705,0.7193398003,-0.7193398003,-0.6946583705,302.5679460826,-14.7524653698)" d=" M 165,71.91 L 173.97,71.91"/>
			<path id="path_360" class="path" transform="matrix(-0.6946583705,0.7193398003,-0.7193398003,-0.6946583705,315.4161720699,-48.1862323501)" d=" M 178.52,57.92 L 187.49,57.92"/>
			<path id="path_361" class="path" transform="matrix(-0.6946583705,0.7193398003,-0.7193398003,-0.6946583705,305.5148608075,-22.4633784283)" d=" M 172.59,63.82 L 172.6,73.54"/>
		</g>
		<g id="Diode_367">
			<path id="path_363" class="path" style="fill:#ffffff;" transform="matrix(-0.6946583705,0.7193398003,-0.7193398003,-0.6946583705,293.4645957836,-84.9883285284)" d=" M 177.15,32.55 L 177.16,42.27 L 187.63,37.41 L 177.15,32.55 Z"/>
			<path id="path_364" class="path" transform="matrix(-0.6946583705,0.7193398003,-0.7193398003,-0.6946583705,287.0623124128,-68.2907285583)" d=" M 171.16,44.4 L 180.13,44.4"/>
			<path id="path_365" class="path" transform="matrix(-0.6946583705,0.7193398003,-0.7193398003,-0.6946583705,299.9105108331,-101.7244571341)" d=" M 184.68,30.41 L 193.65,30.41"/>
			<path id="path_366" class="path" transform="matrix(-0.6946583705,0.7193398003,-0.7193398003,-0.6946583705,290.0092420787,-76.0016288858)" d=" M 178.75,36.31 L 178.76,46.03"/>
		</g>
		<g id="Diode_372">
			<path id="path_368" class="path" style="fill:#ffffff;" transform="matrix(-0.6946583705,0.7193398003,-0.7193398003,-0.6946583705,342.6656439809,14.0070475757)" d=" M 183.28,95.03 L 183.29,104.75 L 193.76,99.89 L 183.28,95.03 Z"/>
			<path id="path_369" class="path" transform="matrix(-0.6946583705,0.7193398003,-0.7193398003,-0.6946583705,336.2633429837,30.7046779157)" d=" M 177.29,106.88 L 186.26,106.88"/>
			<path id="path_370" class="path" transform="matrix(-0.6946583705,0.7193398003,-0.7193398003,-0.6946583705,349.111578424,-2.7290892627)" d=" M 190.81,92.89 L 199.78,92.89"/>
			<path id="path_371" class="path" transform="matrix(-0.6946583705,0.7193398003,-0.7193398003,-0.6946583705,339.2102744172,22.9937997263)" d=" M 184.88,98.79 L 184.89,108.51"/>
		</g>
		<g id="Diode_377">
			<path id="path_373" class="path" style="fill:#ffffff;" transform="matrix(-0.6946583705,0.7193398003,-0.7193398003,-0.6946583705,413.4807817137,163.8278632906)" d=" M 189.44,187.52 L 189.45,197.24 L 199.92,192.38 L 189.44,187.52 Z"/>
			<path id="path_374" class="path" transform="matrix(-0.6946583705,0.7193398003,-0.7193398003,-0.6946583705,407.0784935281,180.5253890099)" d=" M 183.45,199.37 L 192.42,199.37"/>
			<path id="path_375" class="path" transform="matrix(-0.6946583705,0.7193398003,-0.7193398003,-0.6946583705,419.9267387827,147.091716848)" d=" M 196.97,185.38 L 205.94,185.38"/>
			<path id="path_376" class="path" transform="matrix(-0.6946583705,0.7193398003,-0.7193398003,-0.6946583705,410.025424869,172.8145375627)" d=" M 191.04,191.28 L 191.05,201"/>
		</g>
		<g id="Diode_382">
			<path id="path_378" class="path" style="fill:#ffffff;" transform="matrix(-0.6946583705,0.7193398003,-0.7193398003,-0.6946583705,376.3538733292,59.4472557372)" d=" M 195.57,129.99 L 195.58,139.71 L 206.05,134.85 L 195.57,129.99 Z"/>
			<path id="path_379" class="path" transform="matrix(-0.6946583705,0.7193398003,-0.7193398003,-0.6946583705,369.9515687971,76.1448418015)" d=" M 189.58,141.84 L 198.55,141.84"/>
			<path id="path_380" class="path" transform="matrix(-0.6946583705,0.7193398003,-0.7193398003,-0.6946583705,382.7997990519,42.7111073419)" d=" M 203.1,127.85 L 212.07,127.85"/>
			<path id="path_381" class="path" transform="matrix(-0.6946583705,0.7193398003,-0.7193398003,-0.6946583705,372.8985038581,68.4339811457)" d=" M 197.17,133.75 L 197.18,143.47"/>
		</g>
		<g id="Diode_387">
			<path id="path_383" class="path" style="fill:#ffffff;" transform="matrix(-0.6946583705,0.7193398003,-0.7193398003,-0.6946583705,468.7322620064,260.114953435)" d=" M 201.72,252.48 L 201.73,262.2 L 212.2,257.34 L 201.72,252.48 Z"/>
			<path id="path_384" class="path" transform="matrix(-0.6946583705,0.7193398003,-0.7193398003,-0.6946583705,462.329956986,276.8125473358)" d=" M 195.73,264.33 L 204.7,264.33"/>
			<path id="path_385" class="path" transform="matrix(-0.6946583705,0.7193398003,-0.7193398003,-0.6946583705,475.1781802883,243.3788234574)" d=" M 209.25,250.34 L 218.22,250.34"/>
			<path id="path_386" class="path" transform="matrix(-0.6946583705,0.7193398003,-0.7193398003,-0.6946583705,465.2768818621,269.1016986327)" d=" M 203.32,256.24 L 203.33,265.96"/>
		</g>
		<g id="Diode_392">
			<path id="path_388" class="path" style="fill:#ffffff;" transform="matrix(-0.6946583705,0.7193398003,-0.7193398003,-0.6946583705,459.2431103196,203.8828343288)" d=" M 213.99,227.43 L 214,237.15 L 224.47,232.29 L 213.99,227.43 Z"/>
			<path id="path_389" class="path" transform="matrix(-0.6946583705,0.7193398003,-0.7193398003,-0.6946583705,452.8408590866,220.580474063)" d=" M 208,239.28 L 216.97,239.28"/>
			<path id="path_390" class="path" transform="matrix(-0.6946583705,0.7193398003,-0.7193398003,-0.6946583705,465.6890803182,187.1466823983)" d=" M 221.52,225.29 L 230.49,225.29"/>
			<path id="path_391" class="path" transform="matrix(-0.6946583705,0.7193398003,-0.7193398003,-0.6946583705,455.7877831716,212.8695875483)" d=" M 215.59,231.19 L 215.6,240.91"/>
		</g>
		<g id="Diode_397">
			<path id="path_393" class="path" style="fill:#ffffff;" transform="matrix(-0.6946583705,0.7193398003,-0.7193398003,-0.6946583705,425.9838117039,98.8605619771)" d=" M 202.44,150.65 L 202.45,160.37 L 212.92,155.51 L 202.44,150.65 Z"/>
			<path id="path_394" class="path" transform="matrix(-0.6946583705,0.7193398003,-0.7193398003,-0.6946583705,419.581550681,115.5582325697)" d=" M 196.45,162.5 L 205.42,162.5"/>
			<path id="path_395" class="path" transform="matrix(-0.6946583705,0.7193398003,-0.7193398003,-0.6946583705,432.4297526119,82.1244223948)" d=" M 209.97,148.51 L 218.94,148.51"/>
			<path id="path_396" class="path" transform="matrix(-0.6946583705,0.7193398003,-0.7193398003,-0.6946583705,422.5284560459,107.8472929662)" d=" M 204.04,154.41 L 204.05,164.13"/>
		</g>
		<g id="Diode_402">
			<path id="path_398" class="path" style="fill:#ffffff;" transform="matrix(-0.6946583705,0.7193398003,-0.7193398003,-0.6946583705,367.2839127794,-56.3427814444)" d=" M 208.57,63.13 L 208.58,72.85 L 219.05,67.99 L 208.57,63.13 Z"/>
			<path id="path_399" class="path" transform="matrix(-0.6946583705,0.7193398003,-0.7193398003,-0.6946583705,360.8816309322,-39.6451554184)" d=" M 202.58,74.98 L 211.55,74.98"/>
			<path id="path_400" class="path" transform="matrix(-0.6946583705,0.7193398003,-0.7193398003,-0.6946583705,373.7298596634,-73.0789159343)" d=" M 216.1,60.99 L 225.07,60.99"/>
			<path id="path_401" class="path" transform="matrix(-0.6946583705,0.7193398003,-0.7193398003,-0.6946583705,363.8285456569,-47.356068477)" d=" M 210.17,66.89 L 210.18,76.61"/>
		</g>
		<g id="Diode_407">
			<path id="path_403" class="path" style="fill:#ffffff;" transform="matrix(-0.6946583705,0.7193398003,-0.7193398003,-0.6946583705,351.7710884425,-109.8979623163)" d=" M 214.73,35.61 L 214.74,45.33 L 225.21,40.47 L 214.73,35.61 Z"/>
			<path id="path_404" class="path" transform="matrix(-0.6946583705,0.7193398003,-0.7193398003,-0.6946583705,345.3688023275,-93.2003688108)" d=" M 208.74,47.46 L 217.71,47.46"/>
			<path id="path_405" class="path" transform="matrix(-0.6946583705,0.7193398003,-0.7193398003,-0.6946583705,358.2170034919,-126.6340909219)" d=" M 222.26,33.47 L 231.23,33.47"/>
			<path id="path_406" class="path" transform="matrix(-0.6946583705,0.7193398003,-0.7193398003,-0.6946583705,348.3157218082,-100.9112571854)" d=" M 216.33,39.37 L 216.34,49.09"/>
		</g>
		<g id="Diode_412">
			<path id="path_408" class="path" style="fill:#ffffff;" transform="matrix(-0.6946583705,0.7193398003,-0.7193398003,-0.6946583705,400.9721338957,-10.9025926769)" d=" M 220.86,98.09 L 220.87,107.81 L 231.34,102.95 L 220.86,98.09 Z"/>
			<path id="path_409" class="path" transform="matrix(-0.6946583705,0.7193398003,-0.7193398003,-0.6946583705,394.5698383866,5.7950505924)" d=" M 214.87,109.94 L 223.84,109.94"/>
			<path id="path_410" class="path" transform="matrix(-0.6946583705,0.7193398003,-0.7193398003,-0.6946583705,407.4180683388,-27.6387295151)" d=" M 228.39,95.95 L 237.36,95.95"/>
			<path id="path_411" class="path" transform="matrix(-0.6946583705,0.7193398003,-0.7193398003,-0.6946583705,397.5167643319,-1.9158405262)" d=" M 222.46,101.85 L 222.47,111.57"/>
		</g>
		<g id="Diode_417">
			<path id="path_413" class="path" style="fill:#ffffff;" transform="matrix(-0.6946583705,0.7193398003,-0.7193398003,-0.6946583705,471.7872716283,138.918223038)" d=" M 227.02,190.58 L 227.03,200.3 L 237.5,195.44 L 227.02,190.58 Z"/>
			<path id="path_414" class="path" transform="matrix(-0.6946583705,0.7193398003,-0.7193398003,-0.6946583705,465.3849705137,155.6157542455)" d=" M 221.03,202.43 L 230,202.43"/>
			<path id="path_415" class="path" transform="matrix(-0.6946583705,0.7193398003,-0.7193398003,-0.6946583705,478.2332286976,122.1820765954)" d=" M 234.55,188.44 L 243.52,188.44"/>
			<path id="path_416" class="path" transform="matrix(-0.6946583705,0.7193398003,-0.7193398003,-0.6946583705,468.3319147837,147.9048973101)" d=" M 228.62,194.34 L 228.63,204.06"/>
		</g>
		<g id="Diode_422">
			<path id="path_418" class="path" style="fill:#ffffff;" transform="matrix(-0.6946583705,0.7193398003,-0.7193398003,-0.6946583705,434.6603503148,34.5376209728)" d=" M 233.15,133.05 L 233.16,142.77 L 243.63,137.91 L 233.15,133.05 Z"/>
			<path id="path_419" class="path" transform="matrix(-0.6946583705,0.7193398003,-0.7193398003,-0.6946583705,428.2580587118,51.235201549)" d=" M 227.16,144.9 L 236.13,144.9"/>
			<path id="path_420" class="path" transform="matrix(-0.6946583705,0.7193398003,-0.7193398003,-0.6946583705,441.1062685964,17.8014909947)" d=" M 240.68,130.91 L 249.65,130.91"/>
			<path id="path_421" class="path" transform="matrix(-0.6946583705,0.7193398003,-0.7193398003,-0.6946583705,431.204993773,43.5243408931)" d=" M 234.75,136.81 L 234.76,146.53"/>
		</g>
		<g id="Diode_427">
			<path id="path_423" class="path" style="fill:#ffffff;" transform="matrix(-0.6946583705,0.7193398003,-0.7193398003,-0.6946583705,527.0387370392,235.2053500174)" d=" M 239.3,255.54 L 239.31,265.26 L 249.78,260.4 L 239.3,255.54 Z"/>
			<path id="path_424" class="path" transform="matrix(-0.6946583705,0.7193398003,-0.7193398003,-0.6946583705,520.636457877,251.9029329417)" d=" M 233.31,267.39 L 242.28,267.39"/>
			<path id="path_425" class="path" transform="matrix(-0.6946583705,0.7193398003,-0.7193398003,-0.6946583705,533.484670203,218.4691832049)" d=" M 246.83,253.4 L 255.8,253.4"/>
			<path id="path_426" class="path" transform="matrix(-0.6946583705,0.7193398003,-0.7193398003,-0.6946583705,523.5833608006,244.1920325219)" d=" M 240.9,259.3 L 240.91,269.02"/>
		</g>
		<g id="Diode_432">
			<path id="path_428" class="path" style="fill:#ffffff;" transform="matrix(-0.6946583705,0.7193398003,-0.7193398003,-0.6946583705,517.5568006572,178.9901572094)" d=" M 251.57,230.5 L 251.58,240.22 L 262.05,235.36 L 251.57,230.5 Z"/>
			<path id="path_429" class="path" transform="matrix(-0.6946583705,0.7193398003,-0.7193398003,-0.6946583705,511.1545494241,195.6877969436)" d=" M 245.58,242.35 L 254.55,242.35"/>
			<path id="path_430" class="path" transform="matrix(-0.6946583705,0.7193398003,-0.7193398003,-0.6946583705,524.002731868,162.2540217433)" d=" M 259.1,228.36 L 268.07,228.36"/>
			<path id="path_431" class="path" transform="matrix(-0.6946583705,0.7193398003,-0.7193398003,-0.6946583705,514.1014625329,187.9768845707)" d=" M 253.17,234.26 L 253.18,243.98"/>
		</g>
		<g id="Diode_477">
			<path id="path_473" class="path" style="fill:#ffffff;" transform="matrix(-0.6946583705,0.7193398003,-0.7193398003,-0.6946583705,491.7570513962,70.6215013406)" d=" M 247.59,156.76 L 247.6,166.48 L 258.07,161.62 L 247.59,156.76 Z"/>
			<path id="path_474" class="path" transform="matrix(-0.6946583705,0.7193398003,-0.7193398003,-0.6946583705,485.3547923261,87.3191405866)" d=" M 241.6,168.61 L 250.57,168.61"/>
			<path id="path_475" class="path" transform="matrix(-0.6946583705,0.7193398003,-0.7193398003,-0.6946583705,498.202992304,53.8853617584)" d=" M 255.12,154.62 L 264.09,154.62"/>
			<path id="path_476" class="path" transform="matrix(-0.6946583705,0.7193398003,-0.7193398003,-0.6946583705,488.3016976909,79.6082009832)" d=" M 249.19,160.52 L 249.2,170.24"/>
		</g>
		<g id="Diode_482">
			<path id="path_478" class="path" style="fill:#ffffff;" transform="matrix(-0.6946583705,0.7193398003,-0.7193398003,-0.6946583705,433.057121125,-84.5818440338)" d=" M 253.72,69.24 L 253.73,78.96 L 264.2,74.1 L 253.72,69.24 Z"/>
			<path id="path_479" class="path" transform="matrix(-0.6946583705,0.7193398003,-0.7193398003,-0.6946583705,426.6548412306,-67.8842493543)" d=" M 247.73,81.09 L 256.7,81.09"/>
			<path id="path_480" class="path" transform="matrix(-0.6946583705,0.7193398003,-0.7193398003,-0.6946583705,439.5030394065,-101.3179740119)" d=" M 261.25,67.1 L 270.22,67.1"/>
			<path id="path_481" class="path" transform="matrix(-0.6946583705,0.7193398003,-0.7193398003,-0.6946583705,429.6017669317,-75.5951365546)" d=" M 255.32,73 L 255.33,82.72"/>
		</g>
		<g id="Diode_487">
			<path id="path_483" class="path" style="fill:#ffffff;" transform="matrix(-0.6946583705,0.7193398003,-0.7193398003,-0.6946583705,417.5345231014,-138.1128872081)" d=" M 259.87,41.73 L 259.88,51.45 L 270.35,46.59 L 259.87,41.73 Z"/>
			<path id="path_484" class="path" transform="matrix(-0.6946583705,0.7193398003,-0.7193398003,-0.6946583705,411.1322526599,-121.4152927263)" d=" M 253.88,53.58 L 262.85,53.58"/>
			<path id="path_485" class="path" transform="matrix(-0.6946583705,0.7193398003,-0.7193398003,-0.6946583705,423.9804898678,-154.8490377664)" d=" M 267.4,39.59 L 276.37,39.59"/>
			<path id="path_486" class="path" transform="matrix(-0.6946583705,0.7193398003,-0.7193398003,-0.6946583705,414.0791952548,-129.1261985418)" d=" M 261.47,45.49 L 261.48,55.21"/>
		</g>
		<g id="Diode_492">
			<path id="path_488" class="path" style="fill:#ffffff;" transform="matrix(-0.6946583705,0.7193398003,-0.7193398003,-0.6946583705,466.7283920372,-39.1344603317)" d=" M 266,104.2 L 266.01,113.92 L 276.48,109.06 L 266,104.2 Z"/>
			<path id="path_489" class="path" transform="matrix(-0.6946583705,0.7193398003,-0.7193398003,-0.6946583705,460.3261223866,-22.4368280385)" d=" M 260.01,116.05 L 268.98,116.05"/>
			<path id="path_490" class="path" transform="matrix(-0.6946583705,0.7193398003,-0.7193398003,-0.6946583705,473.174365268,-55.8706136342)" d=" M 273.53,102.06 L 282.5,102.06"/>
			<path id="path_491" class="path" transform="matrix(-0.6946583705,0.7193398003,-0.7193398003,-0.6946583705,463.2730687022,-30.1477430626)" d=" M 267.6,107.96 L 267.61,117.68"/>
		</g>
		<g id="Diode_497">
			<path id="path_493" class="path" style="fill:#ffffff;" transform="matrix(-0.6946583705,0.7193398003,-0.7193398003,-0.6946583705,537.5435372109,110.686336966)" d=" M 272.16,196.69 L 272.17,206.41 L 282.64,201.55 L 272.16,196.69 Z"/>
			<path id="path_494" class="path" transform="matrix(-0.6946583705,0.7193398003,-0.7193398003,-0.6946583705,531.1412600019,127.3838885438)" d=" M 266.17,208.54 L 275.14,208.54"/>
			<path id="path_495" class="path" transform="matrix(-0.6946583705,0.7193398003,-0.7193398003,-0.6946583705,543.9894813511,93.9501960115)" d=" M 279.69,194.55 L 288.66,194.55"/>
			<path id="path_496" class="path" transform="matrix(-0.6946583705,0.7193398003,-0.7193398003,-0.6946583705,534.0882062248,119.6730002619)" d=" M 273.76,200.45 L 273.77,210.17"/>
		</g>
		<g id="Diode_502">
			<path id="path_498" class="path" style="fill:#ffffff;" transform="matrix(-0.6946583705,0.7193398003,-0.7193398003,-0.6946583705,500.4238182734,6.3226666872)" d=" M 278.29,139.17 L 278.3,148.89 L 288.77,144.03 L 278.29,139.17 Z"/>
			<path id="path_499" class="path" transform="matrix(-0.6946583705,0.7193398003,-0.7193398003,-0.6946583705,494.0215486228,23.0202989803)" d=" M 272.3,151.02 L 281.27,151.02"/>
			<path id="path_500" class="path" transform="matrix(-0.6946583705,0.7193398003,-0.7193398003,-0.6946583705,506.8697236257,-10.4134578026)" d=" M 285.82,137.03 L 294.79,137.03"/>
			<path id="path_501" class="path" transform="matrix(-0.6946583705,0.7193398003,-0.7193398003,-0.6946583705,496.968435873,15.3093975838)" d=" M 279.89,142.93 L 279.9,152.65"/>
		</g>
		<g id="Diode_507">
			<path id="path_503" class="path" style="fill:#ffffff;" transform="matrix(-0.6946583705,0.7193398003,-0.7193398003,-0.6946583705,592.8119786841,206.9662580342)" d=" M 284.45,261.65 L 284.46,271.37 L 294.93,266.51 L 284.45,261.65 Z"/>
			<path id="path_504" class="path" transform="matrix(-0.6946583705,0.7193398003,-0.7193398003,-0.6946583705,586.4096865928,223.6638464469)" d=" M 278.46,273.5 L 287.43,273.5"/>
			<path id="path_505" class="path" transform="matrix(-0.6946583705,0.7193398003,-0.7193398003,-0.6946583705,599.257896966,190.2301280564)" d=" M 291.98,259.51 L 300.95,259.51"/>
			<path id="path_506" class="path" transform="matrix(-0.6946583705,0.7193398003,-0.7193398003,-0.6946583705,589.3565636579,215.9529570032)" d=" M 286.05,265.41 L 286.06,275.13"/>
		</g>
		<g id="Diode_512">
			<path id="path_508" class="path" style="fill:#ffffff;" transform="matrix(-0.6946583705,0.7193398003,-0.7193398003,-0.6946583705,583.3131160037,150.7582805314)" d=" M 296.71,236.61 L 296.72,246.33 L 307.19,241.47 L 296.71,236.61 Z"/>
			<path id="path_509" class="path" transform="matrix(-0.6946583705,0.7193398003,-0.7193398003,-0.6946583705,576.9107891483,167.4559218477)" d=" M 290.72,248.46 L 299.69,248.46"/>
			<path id="path_510" class="path" transform="matrix(-0.6946583705,0.7193398003,-0.7193398003,-0.6946583705,589.7590472147,134.0221450654)" d=" M 304.24,234.47 L 313.21,234.47"/>
			<path id="path_511" class="path" transform="matrix(-0.6946583705,0.7193398003,-0.7193398003,-0.6946583705,579.8577410448,159.7449930104)" d=" M 298.31,240.37 L 298.32,250.09"/>
		</g>
		<g id="Diode_517">
			<path id="path_513" class="path" style="fill:#ffffff;" transform="matrix(-0.6946583705,0.7193398003,-0.7193398003,-0.6946583705,550.0368432789,45.7431827441)" d=" M 285.14,159.82 L 285.15,169.54 L 295.62,164.68 L 285.14,159.82 Z"/>
			<path id="path_514" class="path" transform="matrix(-0.6946583705,0.7193398003,-0.7193398003,-0.6946583705,543.6345712795,62.4408274782)" d=" M 279.15,171.67 L 288.12,171.67"/>
			<path id="path_515" class="path" transform="matrix(-0.6946583705,0.7193398003,-0.7193398003,-0.6946583705,556.4827583283,29.0070541381)" d=" M 292.67,157.68 L 301.64,157.68"/>
			<path id="path_516" class="path" transform="matrix(-0.6946583705,0.7193398003,-0.7193398003,-0.6946583705,546.5814746916,54.7299192213)" d=" M 286.74,163.58 L 286.75,173.3"/>
		</g>
		<g id="Diode_522">
			<path id="path_518" class="path" style="fill:#ffffff;" transform="matrix(-0.6946583705,0.7193398003,-0.7193398003,-0.6946583705,491.3369443543,-109.4601606775)" d=" M 291.27,72.3 L 291.28,82.02 L 301.75,77.16 L 291.27,72.3 Z"/>
			<path id="path_519" class="path" transform="matrix(-0.6946583705,0.7193398003,-0.7193398003,-0.6946583705,484.9346570187,-92.7625475806)" d=" M 285.28,84.15 L 294.25,84.15"/>
			<path id="path_520" class="path" transform="matrix(-0.6946583705,0.7193398003,-0.7193398003,-0.6946583705,497.782862636,-126.1962906556)" d=" M 298.8,70.16 L 307.77,70.16"/>
			<path id="path_521" class="path" transform="matrix(-0.6946583705,0.7193398003,-0.7193398003,-0.6946583705,487.8815513733,-100.4734367338)" d=" M 292.87,76.06 L 292.88,85.78"/>
		</g>
		<g id="Diode_527">
			<path id="path_523" class="path" style="fill:#ffffff;" transform="matrix(-0.6946583705,0.7193398003,-0.7193398003,-0.6946583705,475.8313094638,-162.9984042746)" d=" M 297.43,44.79 L 297.44,54.51 L 307.91,49.65 L 297.43,44.79 Z"/>
			<path id="path_524" class="path" transform="matrix(-0.6946583705,0.7193398003,-0.7193398003,-0.6946583705,469.4289873053,-146.3007878403)" d=" M 291.44,56.64 L 300.41,56.64"/>
			<path id="path_525" class="path" transform="matrix(-0.6946583705,0.7193398003,-0.7193398003,-0.6946583705,482.2772245133,-179.7345328805)" d=" M 304.96,42.65 L 313.93,42.65"/>
			<path id="path_526" class="path" transform="matrix(-0.6946583705,0.7193398003,-0.7193398003,-0.6946583705,472.3759326444,-154.0116871911)" d=" M 299.03,48.55 L 299.04,58.27"/>
		</g>
		<g id="Diode_532">
			<path id="path_528" class="path" style="fill:#ffffff;" transform="matrix(-0.6946583705,0.7193398003,-0.7193398003,-0.6946583705,525.0251266827,-64.0199554455)" d=" M 303.56,107.26 L 303.57,116.98 L 314.04,112.12 L 303.56,107.26 Z"/>
			<path id="path_529" class="path" transform="matrix(-0.6946583705,0.7193398003,-0.7193398003,-0.6946583705,518.6228386149,-47.3223305935)" d=" M 297.57,119.11 L 306.54,119.11"/>
			<path id="path_530" class="path" transform="matrix(-0.6946583705,0.7193398003,-0.7193398003,-0.6946583705,531.4710999135,-80.7561087482)" d=" M 311.09,105.12 L 320.06,105.12"/>
			<path id="path_531" class="path" transform="matrix(-0.6946583705,0.7193398003,-0.7193398003,-0.6946583705,521.5697904187,-55.0332326884)" d=" M 305.16,111.02 L 305.17,120.74"/>
		</g>
		<g id="Diode_537">
			<path id="path_533" class="path" style="fill:#ffffff;" transform="matrix(-0.6946583705,0.7193398003,-0.7193398003,-0.6946583705,595.8233659284,85.8080332516)" d=" M 309.71,199.75 L 309.72,209.47 L 320.19,204.61 L 309.71,199.75 Z"/>
			<path id="path_534" class="path" transform="matrix(-0.6946583705,0.7193398003,-0.7193398003,-0.6946583705,589.4210370025,102.5056067817)" d=" M 303.72,211.6 L 312.69,211.6"/>
			<path id="path_535" class="path" transform="matrix(-0.6946583705,0.7193398003,-0.7193398003,-0.6946583705,602.2692971393,69.0718977851)" d=" M 317.24,197.61 L 326.21,197.61"/>
			<path id="path_536" class="path" transform="matrix(-0.6946583705,0.7193398003,-0.7193398003,-0.6946583705,592.3679722493,94.7946926414)" d=" M 311.31,203.51 L 311.32,213.23"/>
		</g>
		<g id="Diode_542">
			<path id="path_538" class="path" style="fill:#ffffff;" transform="matrix(-0.6946583705,0.7193398003,-0.7193398003,-0.6946583705,558.720558407,-18.5628154975)" d=" M 315.85,142.23 L 315.86,151.95 L 326.33,147.09 L 315.85,142.23 Z"/>
			<path id="path_539" class="path" transform="matrix(-0.6946583705,0.7193398003,-0.7193398003,-0.6946583705,552.318264851,-1.8652035748)" d=" M 309.86,154.08 L 318.83,154.08"/>
			<path id="path_540" class="path" transform="matrix(-0.6946583705,0.7193398003,-0.7193398003,-0.6946583705,565.1664637593,-35.2989399875)" d=" M 323.38,140.09 L 332.35,140.09"/>
			<path id="path_541" class="path" transform="matrix(-0.6946583705,0.7193398003,-0.7193398003,-0.6946583705,555.2651630775,-9.5760791128)" d=" M 317.45,145.99 L 317.46,155.71"/>
		</g>
		<g id="Diode_547">
			<path id="path_543" class="path" style="fill:#ffffff;" transform="matrix(-0.6946583705,0.7193398003,-0.7193398003,-0.6946583705,651.0917537318,182.088007619)" d=" M 322,264.71 L 322.01,274.43 L 332.48,269.57 L 322,264.71 Z"/>
			<path id="path_544" class="path" transform="matrix(-0.6946583705,0.7193398003,-0.7193398003,-0.6946583705,644.6894526172,198.7855388265)" d=" M 316.01,276.56 L 324.98,276.56"/>
			<path id="path_545" class="path" transform="matrix(-0.6946583705,0.7193398003,-0.7193398003,-0.6946583705,657.5377237304,165.3518556887)" d=" M 329.53,262.57 L 338.5,262.57"/>
			<path id="path_546" class="path" transform="matrix(-0.6946583705,0.7193398003,-0.7193398003,-0.6946583705,647.6363813991,191.0746274304)" d=" M 323.6,268.47 L 323.61,278.19"/>
		</g>
		<g id="Diode_552">
			<path id="path_548" class="path" style="fill:#ffffff;" transform="matrix(-0.6946583705,0.7193398003,-0.7193398003,-0.6946583705,641.5928820281,125.879972911)" d=" M 334.26,239.67 L 334.27,249.39 L 344.74,244.53 L 334.26,239.67 Z"/>
			<path id="path_549" class="path" transform="matrix(-0.6946583705,0.7193398003,-0.7193398003,-0.6946583705,635.1906068895,142.5775922749)" d=" M 328.27,251.52 L 337.24,251.52"/>
			<path id="path_550" class="path" transform="matrix(-0.6946583705,0.7193398003,-0.7193398003,-0.6946583705,648.0388003099,109.1438429331)" d=" M 341.79,237.53 L 350.76,237.53"/>
			<path id="path_551" class="path" transform="matrix(-0.6946583705,0.7193398003,-0.7193398003,-0.6946583705,638.1374941399,134.8666908781)" d=" M 335.86,243.43 L 335.87,253.15"/>
		</g>
		<ellipse id="ellipse_6" class="ellipse" style="fill:#000000;" cx="60" cy="9.7" rx="1.5" ry="1.5"/>
		<ellipse id="ellipse_7" class="ellipse" style="fill:#000000;" cx="90" cy="9.7" rx="1.5" ry="1.5"/>
		<ellipse id="ellipse_8" class="ellipse" style="fill:#000000;" cx="120" cy="9.7" rx="1.5" ry="1.5"/>
		<ellipse id="ellipse_9" class="ellipse" style="fill:#000000;" cx="150" cy="9.7" rx="1.5" ry="1.5"/>
		<ellipse id="ellipse_10" class="ellipse" style="fill:#000000;" cx="180" cy="9.7" rx="1.5" ry="1.5"/>
		<ellipse id="ellipse_11" class="ellipse" style="fill:#000000;" cx="210" cy="9.7" rx="1.5" ry="1.5"/>
		<ellipse id="ellipse_12" class="ellipse" style="fill:#000000;" cx="240" cy="9.7" rx="1.5" ry="1.5"/>
		<ellipse id="ellipse_13" class="ellipse" style="fill:#000000;" cx="30.02" cy="39.72" rx="1.5" ry="1.5"/>
		<ellipse id="ellipse_14" class="ellipse" style="fill:#000000;" cx="60.02" cy="39.72" rx="1.5" ry="1.5"/>
		<ellipse id="ellipse_15" class="ellipse" style="fill:#000000;" cx="90.02" cy="39.72" rx="1.5" ry="1.5"/>
		<ellipse id="ellipse_16" class="ellipse" style="fill:#000000;" cx="120.02" cy="39.72" rx="1.5" ry="1.5"/>
		<ellipse id="ellipse_17" class="ellipse" style="fill:#000000;" cx="150.02" cy="39.72" rx="1.5" ry="1.5"/>
		<ellipse id="ellipse_18" class="ellipse" style="fill:#000000;" cx="180.02" cy="39.72" rx="1.5" ry="1.5"/>
		<ellipse id="ellipse_19" class="ellipse" style="fill:#000000;" cx="210.02" cy="39.72" rx="1.5" ry="1.5"/>
		<ellipse id="ellipse_20" class="ellipse" style="fill:#000000;" cx="240.02" cy="39.72" rx="1.5" ry="1.5"/>
		<ellipse id="ellipse_21" class="ellipse" style="fill:#000000;" cx="29.96" cy="69.71" rx="1.5" ry="1.5"/>
		<ellipse id="ellipse_22" class="ellipse" style="fill:#000000;" cx="59.96" cy="69.71" rx="1.5" ry="1.5"/>
		<ellipse id="ellipse_23" class="ellipse" style="fill:#000000;" cx="89.96" cy="69.71" rx="1.5" ry="1.5"/>
		<ellipse id="ellipse_24" class="ellipse" style="fill:#000000;" cx="119.96" cy="69.71" rx="1.5" ry="1.5"/>
		<ellipse id="ellipse_25" class="ellipse" style="fill:#000000;" cx="149.96" cy="69.71" rx="1.5" ry="1.5"/>
		<ellipse id="ellipse_26" class="ellipse" style="fill:#000000;" cx="179.96" cy="69.71" rx="1.5" ry="1.5"/>
		<ellipse id="ellipse_27" class="ellipse" style="fill:#000000;" cx="209.96" cy="69.71" rx="1.5" ry="1.5"/>
		<ellipse id="ellipse_28" class="ellipse" style="fill:#000000;" cx="239.96" cy="69.71" rx="1.5" ry="1.5"/>
		<ellipse id="ellipse_29" class="ellipse" style="fill:#000000;" cx="10.1" cy="30.29" rx="1.5" ry="1.5"/>
		<ellipse id="ellipse_30" class="ellipse" style="fill:#000000;" cx="40.1" cy="30.29" rx="1.5" ry="1.5"/>
		<ellipse id="ellipse_31" class="ellipse" style="fill:#000000;" cx="70.1" cy="30.29" rx="1.5" ry="1.5"/>
		<ellipse id="ellipse_32" class="ellipse" style="fill:#000000;" cx="100.1" cy="30.29" rx="1.5" ry="1.5"/>
		<ellipse id="ellipse_33" class="ellipse" style="fill:#000000;" cx="130.1" cy="30.29" rx="1.5" ry="1.5"/>
		<ellipse id="ellipse_34" class="ellipse" style="fill:#000000;" cx="160.1" cy="30.29" rx="1.5" ry="1.5"/>
		<ellipse id="ellipse_35" class="ellipse" style="fill:#000000;" cx="190.1" cy="30.29" rx="1.5" ry="1.5"/>
		<ellipse id="ellipse_36" class="ellipse" style="fill:#000000;" cx="220.1" cy="30.29" rx="1.5" ry="1.5"/>
		<ellipse id="ellipse_37" class="ellipse" style="fill:#000000;" cx="10.42" cy="59.97" rx="1.5" ry="1.5"/>
		<ellipse id="ellipse_38" class="ellipse" style="fill:#000000;" cx="40.42" cy="59.97" rx="1.5" ry="1.5"/>
		<ellipse id="ellipse_39" class="ellipse" style="fill:#000000;" cx="70.42" cy="59.97" rx="1.5" ry="1.5"/>
		<ellipse id="ellipse_40" class="ellipse" style="fill:#000000;" cx="100.42" cy="59.97" rx="1.5" ry="1.5"/>
		<ellipse id="ellipse_41" class="ellipse" style="fill:#000000;" cx="130.42" cy="59.97" rx="1.5" ry="1.5"/>
		<ellipse id="ellipse_42" class="ellipse" style="fill:#000000;" cx="160.42" cy="59.97" rx="1.5" ry="1.5"/>
		<ellipse id="ellipse_43" class="ellipse" style="fill:#000000;" cx="190.42" cy="59.97" rx="1.5" ry="1.5"/>
		<ellipse id="ellipse_44" class="ellipse" style="fill:#000000;" cx="220.42" cy="59.97" rx="1.5" ry="1.5"/>
		<ellipse id="ellipse_45" class="ellipse" style="fill:#000000;" cx="10.03" cy="90.13" rx="1.5" ry="1.5"/>
		<ellipse id="ellipse_46" class="ellipse" style="fill:#000000;" cx="40.03" cy="90.13" rx="1.5" ry="1.5"/>
		<ellipse id="ellipse_47" class="ellipse" style="fill:#000000;" cx="70.03" cy="90.13" rx="1.5" ry="1.5"/>
		<ellipse id="ellipse_48" class="ellipse" style="fill:#000000;" cx="100.03" cy="90.13" rx="1.5" ry="1.5"/>
		<ellipse id="ellipse_49" class="ellipse" style="fill:#000000;" cx="130.03" cy="90.13" rx="1.5" ry="1.5"/>
		<ellipse id="ellipse_50" class="ellipse" style="fill:#000000;" cx="160.03" cy="90.13" rx="1.5" ry="1.5"/>
		<ellipse id="ellipse_51" class="ellipse" style="fill:#000000;" cx="190.03" cy="90.13" rx="1.5" ry="1.5"/>
		<ellipse id="ellipse_52" class="ellipse" style="fill:#000000;" cx="220.03" cy="90.13" rx="1.5" ry="1.5"/>
		<ellipse id="ellipse_53" class="ellipse" style="fill:#000000;" cx="30" cy="99.9" rx="1.5" ry="1.5"/>
		<ellipse id="ellipse_54" class="ellipse" style="fill:#000000;" cx="60" cy="99.9" rx="1.5" ry="1.5"/>
		<ellipse id="ellipse_55" class="ellipse" style="fill:#000000;" cx="90" cy="99.9" rx="1.5" ry="1.5"/>
		<ellipse id="ellipse_56" class="ellipse" style="fill:#000000;" cx="120" cy="99.9" rx="1.5" ry="1.5"/>
		<ellipse id="ellipse_57" class="ellipse" style="fill:#000000;" cx="150" cy="99.9" rx="1.5" ry="1.5"/>
		<ellipse id="ellipse_58" class="ellipse" style="fill:#000000;" cx="180" cy="99.9" rx="1.5" ry="1.5"/>
		<ellipse id="ellipse_59" class="ellipse" style="fill:#000000;" cx="210" cy="99.9" rx="1.5" ry="1.5"/>
		<ellipse id="ellipse_60" class="ellipse" style="fill:#000000;" cx="29.94" cy="129.89" rx="1.5" ry="1.5"/>
		<ellipse id="ellipse_61" class="ellipse" style="fill:#000000;" cx="59.94" cy="129.89" rx="1.5" ry="1.5"/>
		<ellipse id="ellipse_62" class="ellipse" style="fill:#000000;" cx="89.94" cy="129.89" rx="1.5" ry="1.5"/>
		<ellipse id="ellipse_63" class="ellipse" style="fill:#000000;" cx="119.94" cy="129.89" rx="1.5" ry="1.5"/>
		<ellipse id="ellipse_64" class="ellipse" style="fill:#000000;" cx="149.94" cy="129.89" rx="1.5" ry="1.5"/>
		<ellipse id="ellipse_65" class="ellipse" style="fill:#000000;" cx="179.94" cy="129.89" rx="1.5" ry="1.5"/>
		<ellipse id="ellipse_66" class="ellipse" style="fill:#000000;" cx="209.94" cy="129.89" rx="1.5" ry="1.5"/>
		<ellipse id="ellipse_67" class="ellipse" style="fill:#000000;" cx="10.4" cy="120.15" rx="1.5" ry="1.5"/>
		<ellipse id="ellipse_68" class="ellipse" style="fill:#000000;" cx="40.4" cy="120.15" rx="1.5" ry="1.5"/>
		<ellipse id="ellipse_69" class="ellipse" style="fill:#000000;" cx="70.4" cy="120.15" rx="1.5" ry="1.5"/>
		<ellipse id="ellipse_70" class="ellipse" style="fill:#000000;" cx="100.4" cy="120.15" rx="1.5" ry="1.5"/>
		<ellipse id="ellipse_71" class="ellipse" style="fill:#000000;" cx="130.4" cy="120.15" rx="1.5" ry="1.5"/>
		<ellipse id="ellipse_72" class="ellipse" style="fill:#000000;" cx="160.4" cy="120.15" rx="1.5" ry="1.5"/>
		<ellipse id="ellipse_73" class="ellipse" style="fill:#000000;" cx="190.4" cy="120.15" rx="1.5" ry="1.5"/>
		<ellipse id="ellipse_74" class="ellipse" style="fill:#000000;" cx="220.4" cy="120.15" rx="1.5" ry="1.5"/>
		<ellipse id="ellipse_75" class="ellipse" style="fill:#000000;" cx="10.01" cy="150.31" rx="1.5" ry="1.5"/>
		<ellipse id="ellipse_76" class="ellipse" style="fill:#000000;" cx="40.01" cy="150.31" rx="1.5" ry="1.5"/>
		<ellipse id="ellipse_77" class="ellipse" style="fill:#000000;" cx="70.01" cy="150.31" rx="1.5" ry="1.5"/>
		<ellipse id="ellipse_78" class="ellipse" style="fill:#000000;" cx="100.01" cy="150.31" rx="1.5" ry="1.5"/>
		<ellipse id="ellipse_79" class="ellipse" style="fill:#000000;" cx="130.01" cy="150.31" rx="1.5" ry="1.5"/>
		<ellipse id="ellipse_80" class="ellipse" style="fill:#000000;" cx="160.01" cy="150.31" rx="1.5" ry="1.5"/>
		<ellipse id="ellipse_81" class="ellipse" style="fill:#000000;" cx="190.01" cy="150.31" rx="1.5" ry="1.5"/>
		<ellipse id="ellipse_82" class="ellipse" style="fill:#000000;" cx="220.01" cy="150.31" rx="1.5" ry="1.5"/>
		<ellipse id="ellipse_83" class="ellipse" style="fill:#000000;" cx="30.01" cy="159.76" rx="1.5" ry="1.5"/>
		<ellipse id="ellipse_84" class="ellipse" style="fill:#000000;" cx="60.01" cy="159.76" rx="1.5" ry="1.5"/>
		<ellipse id="ellipse_85" class="ellipse" style="fill:#000000;" cx="90.01" cy="159.76" rx="1.5" ry="1.5"/>
		<ellipse id="ellipse_86" class="ellipse" style="fill:#000000;" cx="120.01" cy="159.76" rx="1.5" ry="1.5"/>
		<ellipse id="ellipse_87" class="ellipse" style="fill:#000000;" cx="150.01" cy="159.76" rx="1.5" ry="1.5"/>
		<ellipse id="ellipse_88" class="ellipse" style="fill:#000000;" cx="180.01" cy="159.76" rx="1.5" ry="1.5"/>
		<ellipse id="ellipse_89" class="ellipse" style="fill:#000000;" cx="210.01" cy="159.76" rx="1.5" ry="1.5"/>
		<ellipse id="ellipse_90" class="ellipse" style="fill:#000000;" cx="29.95" cy="189.75" rx="1.5" ry="1.5"/>
		<ellipse id="ellipse_91" class="ellipse" style="fill:#000000;" cx="59.95" cy="189.75" rx="1.5" ry="1.5"/>
		<ellipse id="ellipse_92" class="ellipse" style="fill:#000000;" cx="89.95" cy="189.75" rx="1.5" ry="1.5"/>
		<ellipse id="ellipse_93" class="ellipse" style="fill:#000000;" cx="119.95" cy="189.75" rx="1.5" ry="1.5"/>
		<ellipse id="ellipse_94" class="ellipse" style="fill:#000000;" cx="149.95" cy="189.75" rx="1.5" ry="1.5"/>
		<ellipse id="ellipse_95" class="ellipse" style="fill:#000000;" cx="179.95" cy="189.75" rx="1.5" ry="1.5"/>
		<ellipse id="ellipse_96" class="ellipse" style="fill:#000000;" cx="209.95" cy="189.75" rx="1.5" ry="1.5"/>
		<ellipse id="ellipse_97" class="ellipse" style="fill:#000000;" cx="10.41" cy="180.01" rx="1.5" ry="1.5"/>
		<ellipse id="ellipse_98" class="ellipse" style="fill:#000000;" cx="40.41" cy="180.01" rx="1.5" ry="1.5"/>
		<ellipse id="ellipse_99" class="ellipse" style="fill:#000000;" cx="70.41" cy="180.01" rx="1.5" ry="1.5"/>
		<ellipse id="ellipse_100" class="ellipse" style="fill:#000000;" cx="100.41" cy="180.01" rx="1.5" ry="1.5"/>
		<ellipse id="ellipse_101" class="ellipse" style="fill:#000000;" cx="130.41" cy="180.01" rx="1.5" ry="1.5"/>
		<ellipse id="ellipse_102" class="ellipse" style="fill:#000000;" cx="160.41" cy="180.01" rx="1.5" ry="1.5"/>
		<ellipse id="ellipse_103" class="ellipse" style="fill:#000000;" cx="190.41" cy="180.01" rx="1.5" ry="1.5"/>
		<ellipse id="ellipse_104" class="ellipse" style="fill:#000000;" cx="220.41" cy="180.01" rx="1.5" ry="1.5"/>
		<ellipse id="ellipse_105" class="ellipse" style="fill:#000000;" cx="10.02" cy="210.17" rx="1.5" ry="1.5"/>
		<ellipse id="ellipse_106" class="ellipse" style="fill:#000000;" cx="40.02" cy="210.17" rx="1.5" ry="1.5"/>
		<ellipse id="ellipse_107" class="ellipse" style="fill:#000000;" cx="70.02" cy="210.17" rx="1.5" ry="1.5"/>
		<ellipse id="ellipse_108" class="ellipse" style="fill:#000000;" cx="100.02" cy="210.17" rx="1.5" ry="1.5"/>
		<ellipse id="ellipse_109" class="ellipse" style="fill:#000000;" cx="130.02" cy="210.17" rx="1.5" ry="1.5"/>
		<ellipse id="ellipse_110" class="ellipse" style="fill:#000000;" cx="160.02" cy="210.17" rx="1.5" ry="1.5"/>
		<ellipse id="ellipse_111" class="ellipse" style="fill:#000000;" cx="190.02" cy="210.17" rx="1.5" ry="1.5"/>
		<ellipse id="ellipse_112" class="ellipse" style="fill:#000000;" cx="220.02" cy="210.17" rx="1.5" ry="1.5"/>
		<ellipse id="ellipse_113" class="ellipse" style="fill:#000000;" cx="29.92" cy="219.9" rx="1.5" ry="1.5"/>
		<ellipse id="ellipse_114" class="ellipse" style="fill:#000000;" cx="59.92" cy="219.9" rx="1.5" ry="1.5"/>
		<ellipse id="ellipse_115" class="ellipse" style="fill:#000000;" cx="89.92" cy="219.9" rx="1.5" ry="1.5"/>
		<ellipse id="ellipse_116" class="ellipse" style="fill:#000000;" cx="119.92" cy="219.9" rx="1.5" ry="1.5"/>
		<ellipse id="ellipse_117" class="ellipse" style="fill:#000000;" cx="149.92" cy="219.9" rx="1.5" ry="1.5"/>
		<ellipse id="ellipse_118" class="ellipse" style="fill:#000000;" cx="179.92" cy="219.9" rx="1.5" ry="1.5"/>
		<ellipse id="ellipse_119" class="ellipse" style="fill:#000000;" cx="209.92" cy="219.9" rx="1.5" ry="1.5"/>
		<ellipse id="ellipse_120" class="ellipse" style="fill:#000000;" cx="9.99" cy="240.32" rx="1.5" ry="1.5"/>
		<ellipse id="ellipse_121" class="ellipse" style="fill:#000000;" cx="39.99" cy="240.32" rx="1.5" ry="1.5"/>
		<ellipse id="ellipse_122" class="ellipse" style="fill:#000000;" cx="69.99" cy="240.32" rx="1.5" ry="1.5"/>
		<ellipse id="ellipse_123" class="ellipse" style="fill:#000000;" cx="99.99" cy="240.32" rx="1.5" ry="1.5"/>
		<ellipse id="ellipse_124" class="ellipse" style="fill:#000000;" cx="129.99" cy="240.32" rx="1.5" ry="1.5"/>
		<ellipse id="ellipse_125" class="ellipse" style="fill:#000000;" cx="159.99" cy="240.32" rx="1.5" ry="1.5"/>
		<ellipse id="ellipse_126" class="ellipse" style="fill:#000000;" cx="189.99" cy="240.32" rx="1.5" ry="1.5"/>
		<ellipse id="ellipse_127" class="ellipse" style="fill:#000000;" cx="219.99" cy="240.32" rx="1.5" ry="1.5"/>
		<ellipse id="ellipse_128" class="ellipse" style="fill:#000000;" cx="240.03" cy="99.77" rx="1.5" ry="1.5"/>
		<ellipse id="ellipse_129" class="ellipse" style="fill:#000000;" cx="239.97" cy="129.76" rx="1.5" ry="1.5"/>
		<ellipse id="ellipse_130" class="ellipse" style="fill:#000000;" cx="240.04" cy="159.63" rx="1.5" ry="1.5"/>
		<ellipse id="ellipse_131" class="ellipse" style="fill:#000000;" cx="239.98" cy="189.62" rx="1.5" ry="1.5"/>
		<ellipse id="ellipse_132" class="ellipse" style="fill:#000000;" cx="239.95" cy="219.77" rx="1.5" ry="1.5"/>
	</g>
</svg>
